# Blender v2.69 (sub 0) OBJ File: 'gift.blend'
# www.blender.org
o gift_box_Cube
v 1.189030 0.033700 0.014955
v -0.538117 0.033700 0.298536
v -1.498531 0.643581 -0.164016
v 0.228618 0.643581 -0.447597
v 1.370300 1.156476 0.102258
v -0.356849 1.156476 0.385839
v -1.317261 1.766358 -0.076714
v 0.409886 1.766358 -0.360294
v 1.370300 1.156476 0.102258
v -0.356849 1.156476 0.385839
v -1.317261 1.766358 -0.076714
v 0.409886 1.766358 -0.360294
v 1.474405 1.143198 0.109859
v -0.384478 1.143198 0.415070
v -1.418144 1.799598 -0.082763
v 0.440739 1.799597 -0.387973
v 1.519856 1.424722 0.131750
v -0.339027 1.424722 0.436960
v -1.372693 2.081121 -0.060873
v 0.486190 2.081121 -0.366083
vn -0.114363 -0.708359 -0.696526
vn 0.000000 0.000000 1.000000
vn 0.161170 -0.102346 0.981606
vn -0.433916 -0.000000 0.900954
vn -0.161170 0.102346 -0.981606
vn 0.433916 0.000000 -0.900954
vn -0.134520 -0.557371 -0.819294
vn -0.225651 -0.788881 -0.571620
vn -0.023108 -0.626975 -0.778696
vn -0.077521 -0.878107 -0.472143
vn 0.433915 -0.000000 -0.900954
vn 0.114363 0.708359 0.696526
s off
f 1//1 2//1 3//1 4//1
f 8//2 7//2 11//2 12//2
f 1//3 5//3 6//3 2//3
f 2//4 6//4 7//4 3//4
f 3//5 7//5 8//5 4//5
f 5//6 1//6 4//6 8//6
f 8//7 7//7 15//7 16//7
f 7//2 6//2 10//2 11//2
f 5//2 8//2 12//2 9//2
f 6//2 5//2 9//2 10//2
f 6//8 14//8 15//8 7//8
f 8//9 16//9 13//9 5//9
f 5//10 13//10 14//10 6//10
f 16//5 15//5 19//5 20//5
f 14//4 18//4 19//4 15//4
f 16//11 20//11 17//11 13//11
f 13//3 17//3 18//3 14//3
f 17//12 20//12 19//12 18//12
