# Blender v2.69 (sub 0) OBJ File: 'gift.blend'
# www.blender.org
o gift_knot_Plane.002
v 0.045587 1.656789 0.125934
v -0.145118 1.656789 0.027593
v 0.138787 1.656789 -0.048317
v -0.050396 1.656789 -0.149504
v 0.044710 1.630564 0.150814
v 0.157584 1.630564 -0.060221
v -0.050396 1.656789 -0.149504
v -0.164519 1.630564 0.038907
v -0.051644 1.630564 -0.172129
v 0.165253 1.554140 -0.054922
v 0.053462 1.554140 0.154090
v -0.043758 1.554140 -0.166713
v -0.155550 1.554140 0.042298
v 0.165253 1.554140 -0.054922
v 0.053462 1.554140 0.154090
v -0.043758 1.554140 -0.166713
v -0.155550 1.554140 0.042298
v 0.370740 1.598465 -0.442950
v 0.161728 1.598465 -0.554741
v 0.461120 1.654355 -0.611929
v 0.252109 1.654355 -0.723721
v 0.492342 1.715325 -0.670304
v 0.283331 1.715325 -0.782096
v 0.507132 1.788998 -0.697955
v 0.298120 1.788998 -0.809747
v 0.480839 1.882995 -0.648798
v 0.271828 1.882995 -0.760589
v 0.374026 1.898238 -0.449095
v 0.165015 1.898238 -0.560886
v 0.306652 1.834726 -0.323128
v 0.097641 1.834726 -0.434919
v 0.234348 1.720406 -0.187944
v 0.025337 1.720406 -0.299736
v 0.107761 1.573060 0.048730
v -0.101251 1.573060 -0.063062
v 0.053462 1.554140 0.154090
v 0.165253 1.554140 -0.054922
v -0.155550 1.554140 0.042298
v -0.043758 1.554140 -0.166713
v 0.053462 1.554140 0.154090
v 0.165253 1.554140 -0.054922
v -0.155550 1.554140 0.042298
v -0.043758 1.554140 -0.166713
v -0.155219 1.598465 0.540410
v -0.364230 1.598465 0.428618
v -0.245599 1.654355 0.709390
v -0.454610 1.654355 0.597598
v -0.276821 1.715325 0.767764
v -0.485832 1.715325 0.655973
v -0.291610 1.788998 0.795416
v -0.500622 1.788998 0.683624
v -0.265318 1.882995 0.746258
v -0.474329 1.882995 0.634466
v -0.158505 1.898238 0.546555
v -0.367516 1.898238 0.434763
v -0.091131 1.834726 0.420588
v -0.300142 1.834726 0.308796
v -0.018827 1.720406 0.285404
v -0.227838 1.720406 0.173613
v 0.053462 1.554140 0.154090
v -0.155550 1.554140 0.042298
v 0.165253 1.554140 -0.054922
v -0.043758 1.554140 -0.166713
v 0.053462 1.554140 0.154090
v -0.155550 1.554140 0.042298
v 0.165253 1.554140 -0.054922
v -0.043758 1.554140 -0.166713
v 0.441490 1.598465 0.359576
v 0.553281 1.598465 0.150565
v 0.610470 1.654355 0.449957
v 0.722261 1.654355 0.240945
v 0.668844 1.715325 0.481179
v 0.780636 1.715325 0.272167
v 0.696496 1.788998 0.495968
v 0.808287 1.788998 0.286957
v 0.647338 1.882995 0.469676
v 0.759129 1.882995 0.260665
v 0.447635 1.898238 0.362863
v 0.559426 1.898238 0.153852
v 0.321668 1.834727 0.295489
v 0.433460 1.834727 0.086477
v 0.186484 1.720406 0.223184
v 0.298276 1.720406 0.014173
v -0.050190 1.573060 0.096597
v 0.061602 1.573060 -0.112414
v -0.155550 1.554140 0.042298
v 0.053462 1.554140 0.154090
v -0.043758 1.554140 -0.166713
v 0.165253 1.554140 -0.054922
v -0.155550 1.554140 0.042298
v 0.053462 1.554140 0.154090
v -0.043758 1.554140 -0.166713
v 0.165253 1.554140 -0.054922
v -0.541870 1.598465 -0.166382
v -0.430078 1.598465 -0.375393
v -0.710849 1.654355 -0.256762
v -0.599058 1.654355 -0.465774
v -0.769224 1.715325 -0.287984
v -0.657433 1.715325 -0.496996
v -0.796875 1.788998 -0.302774
v -0.685084 1.788998 -0.511785
v -0.747718 1.882995 -0.276481
v -0.635926 1.882995 -0.485493
v -0.548015 1.898238 -0.169668
v -0.436223 1.898238 -0.378680
v -0.422048 1.834727 -0.102294
v -0.310256 1.834727 -0.311306
v -0.286864 1.720406 -0.029990
v -0.175073 1.720406 -0.239001
vn 0.000000 1.000000 0.000001
vn 0.813586 0.385642 0.435153
vn 0.475336 0.842270 0.254238
vn 0.000000 -1.000000 0.000000
vn 0.000000 1.000000 0.000000
vn 0.000000 0.000000 1.000000
vn 0.047371 -0.994943 -0.088567
vn 0.132052 -0.960004 -0.246892
vn 0.319513 -0.735562 -0.597378
vn 0.433961 -0.391637 -0.811356
vn 0.405657 0.510113 -0.758437
vn 0.031671 0.997743 -0.059215
vn -0.191603 0.913762 0.358229
vn -0.281940 0.801650 0.527130
vn -0.243739 0.856110 0.455706
vn -0.410705 0.884911 -0.219670
vn -0.047371 -0.994943 0.088567
vn -0.132052 -0.960004 0.246891
vn -0.319513 -0.735561 0.597378
vn -0.433961 -0.391637 0.811356
vn -0.405657 0.510113 0.758437
vn -0.031671 0.997743 0.059215
vn 0.191602 0.913761 -0.358230
vn 0.281940 0.801651 -0.527130
vn -0.433487 0.870823 -0.231855
vn 0.243959 0.855827 -0.456118
vn 0.088567 -0.994943 0.047370
vn 0.246891 -0.960004 0.132052
vn 0.597378 -0.735562 0.319513
vn 0.811357 -0.391636 0.433960
vn 0.758438 0.510111 0.405658
vn 0.059215 0.997743 0.031671
vn -0.358230 0.913761 -0.191602
vn -0.527130 0.801651 -0.281940
vn 0.204155 0.901459 -0.381698
vn -0.204409 0.901199 0.382174
vn -0.088567 -0.994943 -0.047371
vn -0.246891 -0.960004 -0.132052
vn -0.597378 -0.735561 -0.319514
vn -0.811356 -0.391637 -0.433960
vn -0.758438 0.510111 -0.405657
vn -0.059215 0.997743 -0.031672
vn 0.358230 0.913761 0.191602
vn 0.527130 0.801651 0.281940
vn -0.804467 0.409507 -0.430276
vn 0.361300 0.912206 0.193244
s off
f 2//1 1//1 3//1 4//1
f 3//2 1//2 5//2 6//2
f 108//3 8//3 9//3 109//3
f 11//4 13//4 12//4 10//4
f 15//5 14//5 16//5 17//5
f 10//6 12//6 16//6 14//6
f 13//6 11//6 15//6 17//6
f 12//6 13//6 17//6 16//6
f 11//6 10//6 14//6 15//6
f 14//7 16//7 19//7 18//7
f 18//8 19//8 21//8 20//8
f 20//9 21//9 23//9 22//9
f 22//10 23//10 25//10 24//10
f 24//11 25//11 27//11 26//11
f 26//12 27//12 29//12 28//12
f 28//13 29//13 31//13 30//13
f 30//14 31//14 33//14 32//14
f 32//15 33//15 9//15 6//15
f 5//16 6//16 85//16 84//16
f 37//4 36//4 38//4 39//4
f 41//5 43//5 42//5 40//5
f 36//6 40//6 42//6 38//6
f 39//6 43//6 41//6 37//6
f 38//6 42//6 43//6 39//6
f 37//6 41//6 40//6 36//6
f 40//17 44//17 45//17 42//17
f 44//18 46//18 47//18 45//18
f 46//19 48//19 49//19 47//19
f 48//20 50//20 51//20 49//20
f 50//21 52//21 53//21 51//21
f 52//22 54//22 55//22 53//22
f 54//23 56//23 57//23 55//23
f 56//24 58//24 59//24 57//24
f 82//25 83//25 6//25 5//25
f 58//26 5//26 8//26 59//26
f 1//1 3//1 7//1 2//1
f 61//4 63//4 62//4 60//4
f 65//5 64//5 66//5 67//5
f 60//6 62//6 66//6 64//6
f 63//6 61//6 65//6 67//6
f 62//6 63//6 67//6 66//6
f 61//6 60//6 64//6 65//6
f 64//27 66//27 69//27 68//27
f 68//28 69//28 71//28 70//28
f 70//29 71//29 73//29 72//29
f 72//30 73//30 75//30 74//30
f 74//31 75//31 77//31 76//31
f 76//32 77//32 79//32 78//32
f 78//33 79//33 81//33 80//33
f 80//34 81//34 83//34 82//34
f 5//35 34//35 35//35 8//35
f 6//36 9//36 35//36 34//36
f 87//4 86//4 88//4 89//4
f 91//5 93//5 92//5 90//5
f 86//6 90//6 92//6 88//6
f 89//6 93//6 91//6 87//6
f 88//6 92//6 93//6 89//6
f 87//6 91//6 90//6 86//6
f 90//37 94//37 95//37 92//37
f 94//38 96//38 97//38 95//38
f 96//39 98//39 99//39 97//39
f 98//40 100//40 101//40 99//40
f 100//41 102//41 103//41 101//41
f 102//42 104//42 105//42 103//42
f 104//43 106//43 107//43 105//43
f 106//44 108//44 109//44 107//44
f 7//45 9//45 8//45 2//45
f 8//46 84//46 85//46 9//46
