# Blender v2.69 (sub 0) OBJ File: 'holiday.blend'
# www.blender.org
o top_1_Plane.001
v 0.399187 1.091756 0.658478
v -0.878811 1.011464 0.101603
v 0.957548 0.740762 -0.572322
v -0.331168 0.664001 -1.117814
v -0.350681 1.121305 0.624431
v 0.429419 0.630922 -1.095150
v -0.853392 0.820024 -0.624372
v 0.932130 0.932202 0.153652
v 0.054858 1.178061 -0.314441
v -0.581334 1.054542 0.324346
v 0.660071 0.697684 -0.795065
v -0.556283 0.753430 -0.820448
v 0.635020 0.998796 0.349728
v 0.212154 0.945294 -0.641867
v -0.115746 1.151417 0.080926
v -0.329731 0.972524 -0.430299
v 0.420778 1.019676 -0.103271
v 0.584729 0.916615 -0.464668
v -0.165781 0.869463 -0.791695
v -0.493681 1.075586 -0.068902
v 0.256828 1.122738 0.258125
vn -0.190566 0.981543 -0.016084
vn 0.259467 0.962569 -0.078345
vn 0.306821 0.836233 -0.454506
vn -0.164042 0.897726 -0.408876
vn -0.336982 0.853991 -0.396412
vn -0.156460 0.987521 0.017970
vn -0.213826 0.976661 -0.020300
vn 0.284037 0.840632 -0.461153
vn 0.249816 0.832430 -0.494624
vn 0.320023 0.946542 -0.040546
vn 0.427057 0.901993 -0.063489
vn -0.227078 0.871784 -0.434082
s off
f 20//1 15//1 9//1
f 21//2 13//2 8//2 17//2
f 14//3 18//3 11//3 6//3
f 7//4 16//4 19//4 12//4
f 16//5 9//5 19//5
f 2//6 10//6 20//6
f 10//7 5//7 15//7 20//7
f 14//8 9//8 18//8
f 11//9 18//9 3//9
f 1//10 13//10 21//10
f 21//11 17//11 9//11
f 12//12 19//12 4//12
