# Blender v2.69 (sub 0) OBJ File: 'holiday.blend'
# www.blender.org
o top_2_Plane
v 0.399187 1.091756 0.658478
v -0.878811 1.011464 0.101603
v 0.957548 0.740762 -0.572322
v -0.331168 0.664001 -1.117814
v -0.350681 1.121305 0.624431
v 0.429419 0.630922 -1.095150
v -0.853392 0.820024 -0.624372
v 0.932130 0.932202 0.153652
v 0.054858 1.178061 -0.314441
v 0.047572 0.659203 -1.061956
v -0.802898 0.908456 -0.276831
v 0.881636 0.843770 -0.193888
v 0.031165 1.093024 0.591236
v 0.212154 0.945294 -0.641867
v -0.115746 1.151417 0.080926
v -0.329731 0.972524 -0.430299
v 0.420778 1.019676 -0.103271
v 0.584729 0.916615 -0.464668
v -0.165781 0.869463 -0.791695
v -0.493681 1.075586 -0.068902
v 0.256828 1.122738 0.258125
v -0.493681 1.075586 -0.068902
vn 0.379379 0.909230 -0.171386
vn 0.036575 0.819254 -0.572263
vn 0.427057 0.901993 -0.063490
vn 0.314766 0.927807 -0.200240
vn -0.219340 0.932487 -0.286981
vn 0.037119 0.995847 0.083128
vn 0.056419 0.993639 0.097457
vn -0.011401 0.996634 0.081178
vn -0.336982 0.853991 -0.396412
vn -0.286139 0.908459 -0.304676
vn 0.056351 0.826327 -0.560365
vn 0.093612 0.820271 -0.564262
s off
f 18//1 12//1 3//1
f 19//2 14//2 6//2 10//2
f 9//3 17//3 18//3
f 17//4 8//4 12//4 18//4
f 11//5 20//5 16//5 7//5
f 15//6 21//6 9//6
f 5//7 13//7 21//7 15//7
f 13//8 1//8 21//8
f 16//9 20//9 9//9
f 11//10 2//10 20//10
f 9//11 14//11 19//11
f 19//12 10//12 4//12
l 20 22
