# Blender v2.69 (sub 0) OBJ File: 'meeting.blend'
# www.blender.org
o sleeve_l_Cylinder.002
v 0.420306 0.638705 -0.339698
v 0.220170 0.509565 -0.222584
v 0.494843 0.614505 -0.303637
v 0.299568 0.413323 -0.203254
v 0.569722 0.500510 -0.291697
v 0.344866 0.274221 -0.215026
v 0.601082 0.363497 -0.310873
v 0.329531 0.173743 -0.251005
v 0.570552 0.283725 -0.349931
v 0.300543 0.158411 -0.271730
v 0.496016 0.307925 -0.385992
v 0.221321 0.208875 -0.303357
v 0.421136 0.421920 -0.397932
v 0.153836 0.336243 -0.307447
v 0.389776 0.558934 -0.378756
v 0.137620 0.465903 -0.281605
vn 0.155382 0.316159 0.935895
vn 0.364256 -0.046805 0.930122
vn 0.305551 0.018936 0.951987
vn -0.202329 -0.232541 -0.951308
vn 0.517341 -0.527821 0.673619
vn 0.434578 -0.361675 0.824823
vn 0.434046 -0.899022 0.057995
vn -0.335856 0.054733 -0.940322
vn -0.039091 -0.573979 -0.817936
vn -0.467777 0.526592 -0.709849
vn -0.266138 -0.171474 -0.948561
vn 0.483164 0.228863 -0.845088
vn -0.398180 0.131153 -0.907883
vn -0.483164 -0.228863 0.845088
vn -0.508493 0.857639 0.076747
vn 0.228041 0.248397 0.941433
vn -0.084353 0.737942 0.669571
vn 0.117322 -0.695288 -0.709091
s off
f 3//1 2//1 4//1
f 5//2 6//2 7//2
f 5//3 4//3 6//3
f 11//4 12//4 13//4
f 7//5 8//5 9//5
f 7//6 6//6 8//6
f 8//7 10//7 9//7
f 13//8 14//8 15//8
f 11//9 10//9 12//9
f 1//10 15//10 16//10
f 13//11 12//11 14//11
f 1//12 3//12 5//12 7//12 9//12 11//12 13//12 15//12
f 15//13 14//13 16//13
f 16//14 14//14 12//14 10//14 8//14 6//14 4//14 2//14
f 1//15 16//15 2//15
f 3//16 4//16 5//16
f 1//17 2//17 3//17
f 9//18 10//18 11//18
o sleeve_r_Cylinder.001
v -0.684225 0.424271 0.259215
v -0.453353 0.398744 0.106742
v -0.744203 0.376367 0.212317
v -0.488492 0.281086 0.079014
v -0.767865 0.243438 0.193494
v -0.474188 0.134346 0.089754
v -0.741350 0.103352 0.213773
v -0.418819 0.044483 0.132670
v -0.680190 0.038169 0.261275
v -0.385397 0.039716 0.158715
v -0.620212 0.086073 0.308173
v -0.331745 0.114029 0.200756
v -0.596550 0.219003 0.326996
v -0.320469 0.257120 0.209950
v -0.623065 0.359088 0.306717
v -0.358176 0.385169 0.180912
vn -0.345303 0.311740 -0.885203
vn -0.392607 -0.204128 -0.896767
vn -0.365194 -0.103313 -0.925181
vn 0.358775 -0.193176 0.913216
vn -0.289374 -0.726078 -0.623758
vn -0.296713 -0.554224 -0.777687
vn -0.040021 -0.990709 -0.129975
vn 0.358920 0.199915 0.911707
vn 0.323487 -0.631968 0.704253
vn 0.243795 0.710113 0.660533
vn 0.399255 -0.090086 0.912404
vn -0.614872 -0.002220 0.788624
vn 0.382782 0.310074 0.870248
vn 0.614872 0.002220 -0.788624
vn 0.124274 0.992002 0.022094
vn -0.394370 0.197290 -0.897524
vn -0.250418 0.818985 -0.516289
vn 0.200106 -0.801805 0.563086
s off
f 19//19 18//19 20//19
f 21//20 22//20 23//20
f 21//21 20//21 22//21
f 27//22 28//22 29//22
f 23//23 24//23 25//23
f 23//24 22//24 24//24
f 24//25 26//25 25//25
f 29//26 30//26 31//26
f 27//27 26//27 28//27
f 17//28 31//28 32//28
f 29//29 28//29 30//29
f 17//30 19//30 21//30 23//30 25//30 27//30 29//30 31//30
f 31//31 30//31 32//31
f 32//32 30//32 28//32 26//32 24//32 22//32 20//32 18//32
f 17//33 32//33 18//33
f 19//34 20//34 21//34
f 17//35 18//35 19//35
f 25//36 26//36 27//36
