# Blender v2.69 (sub 0) OBJ File: 'meeting.blend'
# www.blender.org
o shirt_l_Cylinder.003
v 0.304567 0.543221 -0.283618
v 0.179283 0.458750 -0.206276
v 0.355562 0.523699 -0.259112
v 0.235625 0.386801 -0.193215
v 0.409365 0.438981 -0.251094
v 0.270186 0.284630 -0.201348
v 0.434459 0.338692 -0.264261
v 0.262720 0.212089 -0.225910
v 0.416145 0.281580 -0.290899
v 0.243598 0.201717 -0.240021
v 0.365150 0.301101 -0.315405
v 0.188688 0.240429 -0.261487
v 0.311347 0.385820 -0.323423
v 0.139491 0.334662 -0.264154
v 0.286253 0.486109 -0.310256
v 0.124828 0.429215 -0.246460
vn 0.169470 0.302953 0.937816
vn 0.366208 -0.030468 0.930034
vn 0.308199 0.028563 0.950893
vn -0.213035 -0.225274 -0.950719
vn 0.518983 -0.492343 0.698752
vn 0.430205 -0.328924 0.840674
vn 0.435739 -0.897418 0.069090
vn -0.336239 0.039401 -0.940952
vn -0.064201 -0.552056 -0.831332
vn -0.464446 0.492302 -0.736158
vn -0.275483 -0.170599 -0.946047
vn 0.492291 0.233277 -0.838589
vn -0.398264 0.108682 -0.910809
vn -0.492291 -0.233277 0.838589
vn -0.521552 0.849209 0.082635
vn 0.240560 0.241745 0.940048
vn -0.057441 0.719191 0.692433
vn 0.095046 -0.672779 -0.733713
s off
f 3//1 2//1 4//1
f 5//2 6//2 7//2
f 5//3 4//3 6//3
f 11//4 12//4 13//4
f 7//5 8//5 9//5
f 7//6 6//6 8//6
f 8//7 10//7 9//7
f 13//8 14//8 15//8
f 11//9 10//9 12//9
f 1//10 15//10 16//10
f 13//11 12//11 14//11
f 1//12 3//12 5//12 7//12 9//12 11//12 13//12 15//12
f 15//13 14//13 16//13
f 16//14 14//14 12//14 10//14 8//14 6//14 4//14 2//14
f 1//15 16//15 2//15
f 3//16 4//16 5//16
f 1//17 2//17 3//17
f 9//18 10//18 11//18
o shirt_r_Cylinder
v -0.525533 0.389475 0.200436
v -0.379634 0.370396 0.098980
v -0.565358 0.353898 0.168229
v -0.403079 0.283448 0.079836
v -0.581213 0.255727 0.155173
v -0.393779 0.175233 0.087033
v -0.563810 0.152469 0.168917
v -0.357184 0.109143 0.116354
v -0.523343 0.104612 0.201410
v -0.335031 0.105755 0.134205
v -0.483518 0.140189 0.233617
v -0.299366 0.160793 0.163113
v -0.467663 0.238360 0.246673
v -0.291711 0.266414 0.169578
v -0.485066 0.341618 0.232929
v -0.316549 0.360747 0.149815
vn -0.356812 0.291616 -0.887494
vn -0.405716 -0.187451 -0.894571
vn -0.375419 -0.093584 -0.922118
vn 0.369241 -0.180861 0.911565
vn -0.310419 -0.699507 -0.643684
vn -0.311532 -0.524146 -0.792602
vn -0.042306 -0.989890 -0.135384
vn 0.369805 0.183558 0.910797
vn 0.343463 -0.601427 0.721331
vn 0.259299 0.682922 0.682921
vn 0.411246 -0.085363 0.907519
vn -0.627653 -0.002164 0.778490
vn 0.397276 0.287209 0.871598
vn 0.627653 0.002164 -0.778490
vn 0.139645 0.990094 0.014627
vn -0.407059 0.184704 -0.894532
vn -0.272546 0.795300 -0.541495
vn 0.215782 -0.776956 0.591420
s off
f 19//19 18//19 20//19
f 21//20 22//20 23//20
f 21//21 20//21 22//21
f 27//22 28//22 29//22
f 23//23 24//23 25//23
f 23//24 22//24 24//24
f 24//25 26//25 25//25
f 29//26 30//26 31//26
f 27//27 26//27 28//27
f 17//28 31//28 32//28
f 29//29 28//29 30//29
f 17//30 19//30 21//30 23//30 25//30 27//30 29//30 31//30
f 31//31 30//31 32//31
f 32//32 30//32 28//32 26//32 24//32 22//32 20//32 18//32
f 17//33 32//33 18//33
f 19//34 20//34 21//34
f 17//35 18//35 19//35
f 25//36 26//36 27//36
