# Blender v2.69 (sub 0) OBJ File: 'meeting.blend'
# www.blender.org
o shirt_l_Cylinder.003
v 0.176476 0.498155 0.625319
v 0.119822 0.445662 0.413178
v 0.105822 0.470274 0.631404
v 0.071248 0.364658 0.428421
v 0.068809 0.376965 0.648668
v 0.075421 0.257142 0.447586
v 0.087118 0.272889 0.666998
v 0.129898 0.186096 0.459446
v 0.150025 0.219011 0.675656
v 0.166747 0.178923 0.460156
v 0.220679 0.246893 0.669571
v 0.232472 0.226573 0.450612
v 0.257692 0.340201 0.652308
v 0.256502 0.328600 0.431991
v 0.239383 0.444277 0.633978
v 0.224760 0.425237 0.415201
vn -0.861395 0.495623 -0.111159
vn -0.984715 -0.161940 0.064118
vn -0.999147 -0.040355 -0.008808
vn 0.931498 -0.354141 0.083035
vn -0.654319 -0.736168 0.172983
vn -0.797496 -0.597252 0.085380
vn -0.191498 -0.967504 0.165118
vn 0.985202 0.170798 -0.014318
vn 0.593702 -0.797673 0.106001
vn 0.655234 0.747542 -0.108854
vn 0.973619 -0.228079 0.006749
vn 0.015299 0.176039 0.984264
vn 0.950761 0.296759 -0.089375
vn -0.015298 -0.176040 -0.984264
vn 0.188495 0.940404 -0.283037
vn -0.931031 0.363652 -0.030631
vn -0.373560 0.918790 -0.127587
vn 0.374512 -0.905925 0.197585
s off
f 3//1 2//1 4//1
f 5//2 6//2 7//2
f 5//3 4//3 6//3
f 11//4 12//4 13//4
f 7//5 8//5 9//5
f 7//6 6//6 8//6
f 8//7 10//7 9//7
f 13//8 14//8 15//8
f 11//9 10//9 12//9
f 1//10 15//10 16//10
f 13//11 12//11 14//11
f 1//12 3//12 5//12 7//12 9//12 11//12 13//12 15//12
f 15//13 14//13 16//13
f 16//14 14//14 12//14 10//14 8//14 6//14 4//14 2//14
f 1//15 16//15 2//15
f 3//16 4//16 5//16
f 1//17 2//17 3//17
f 9//18 10//18 11//18
o shirt_r_Cylinder
v -0.062603 0.541505 -0.582137
v -0.005164 0.488363 -0.370369
v 0.007827 0.513157 -0.588636
v 0.042781 0.407053 -0.385974
v 0.044118 0.419624 -0.606215
v 0.037780 0.299592 -0.405248
v 0.025009 0.315696 -0.624574
v -0.017238 0.228929 -0.416902
v -0.038305 0.262254 -0.632960
v -0.054138 0.222006 -0.417423
v -0.108735 0.290603 -0.626460
v -0.119487 0.270085 -0.407466
v -0.145026 0.384136 -0.608882
v -0.142728 0.372247 -0.388590
v -0.125917 0.488063 -0.590522
v -0.110247 0.468647 -0.371851
vn 0.865301 0.489672 0.107128
vn 0.983243 -0.168484 -0.069622
vn 0.998885 -0.047091 0.003375
vn -0.934296 -0.347758 -0.078452
vn 0.648404 -0.740336 -0.177414
vn 0.792983 -0.602498 -0.090413
vn 0.184084 -0.968561 -0.167342
vn -0.983938 0.177408 0.019836
vn -0.599625 -0.793523 -0.103785
vn -0.649586 0.751797 0.113305
vn -0.975156 -0.221511 -0.001785
vn -0.019406 0.177389 -0.983949
vn -0.948245 0.303038 0.094862
vn 0.019406 -0.177389 0.983949
vn -0.180629 0.941291 0.285209
vn 0.933611 0.357338 0.026063
vn 0.380423 0.916091 0.126707
vn -0.381665 -0.903132 -0.196683
s off
f 19//19 18//19 20//19
f 21//20 22//20 23//20
f 21//21 20//21 22//21
f 27//22 28//22 29//22
f 23//23 24//23 25//23
f 23//24 22//24 24//24
f 24//25 26//25 25//25
f 29//26 30//26 31//26
f 27//27 26//27 28//27
f 17//28 31//28 32//28
f 29//29 28//29 30//29
f 17//30 19//30 21//30 23//30 25//30 27//30 29//30 31//30
f 31//31 30//31 32//31
f 32//32 30//32 28//32 26//32 24//32 22//32 20//32 18//32
f 17//33 32//33 18//33
f 19//34 20//34 21//34
f 17//35 18//35 19//35
f 25//36 26//36 27//36
