# Blender v2.69 (sub 0) OBJ File: 'memo.blend'
# www.blender.org
o notebook_outline_Cube.002
v 0.508063 -0.107791 -0.068442
v -0.425894 0.030090 0.187195
v -0.436490 0.022182 0.172825
v 0.497468 -0.115699 -0.082812
v -0.438259 1.144653 -0.075490
v 0.495699 1.006771 -0.331127
v 0.545307 1.119180 -0.288292
v -0.360455 1.265112 -0.004245
v -0.357411 1.274755 -0.001722
v 0.548351 1.128824 -0.285769
v 0.522295 1.110895 -0.324557
v -0.382842 1.259344 -0.040139
v -0.381378 1.269462 -0.040405
v 0.523759 1.121013 -0.324823
v 0.505654 1.083555 -0.344109
v -0.410547 1.223210 -0.075541
v -0.414059 1.226625 -0.082237
v 0.502142 1.086970 -0.350805
v 0.488512 1.042350 -0.360633
v -0.427690 1.182005 -0.092065
v -0.431202 1.185420 -0.098761
v 0.485000 1.045765 -0.367329
v 0.497805 0.981127 -0.342309
v -0.433211 1.125718 -0.073611
v -0.437567 1.125203 -0.080853
v 0.493449 0.980611 -0.349551
vn 0.002183 -0.876783 0.480882
vn -0.286626 -0.207367 -0.935331
vn 0.089065 0.971561 -0.219400
vn -0.104507 0.698377 -0.708060
vn -0.850338 0.135903 0.508386
vn 0.850325 -0.135905 -0.508407
vn -0.081931 -0.967326 0.239934
vn -0.192130 0.433083 -0.880639
vn -0.844035 0.138777 0.518021
vn 0.842852 -0.139819 -0.519664
vn 0.107075 -0.692480 0.713447
vn -0.306688 -0.265286 -0.914093
vn -0.844187 0.144157 0.516302
vn 0.844194 -0.144169 -0.516286
vn 0.192129 -0.433083 0.880639
vn -0.821736 0.244499 0.514753
vn 0.868951 -0.019275 -0.494523
vn 0.308325 0.293134 0.904991
s off
f 1//1 2//1 3//1 4//1
f 3//2 5//2 6//2 4//2
f 9//3 10//3 14//3 13//3
f 13//4 14//4 18//4 17//4
f 8//5 9//5 13//5 12//5
f 10//6 7//6 11//6 14//6
f 7//7 8//7 12//7 11//7
f 17//8 18//8 22//8 21//8
f 12//9 13//9 17//9 16//9
f 14//10 11//10 15//10 18//10
f 11//11 12//11 16//11 15//11
f 21//12 22//12 26//12 25//12
f 16//13 17//13 21//13 20//13
f 18//14 15//14 19//14 22//14
f 15//15 16//15 20//15 19//15
f 20//16 21//16 25//16 24//16
f 22//17 19//17 23//17 26//17
f 19//18 20//18 24//18 23//18
