# Blender v2.69 (sub 0) OBJ File: 'memo.blend'
# www.blender.org
o notebook_paper_Cube.004
v 0.458686 1.039399 -0.162321
v -0.317074 1.160233 0.052751
v -0.314977 1.154417 0.057735
v 0.460784 1.033583 -0.157336
v 0.437159 1.016587 -0.192154
v -0.338601 1.137421 0.022917
v -0.336504 1.131605 0.027902
v 0.439257 1.010771 -0.187169
v 0.441845 1.071866 -0.198668
v -0.325151 1.199711 0.029138
v -0.322410 1.208541 0.031405
v 0.444587 1.080696 -0.196400
v 0.421196 1.064361 -0.231667
v -0.345237 1.194512 -0.003532
v -0.343911 1.203783 -0.003805
v 0.422522 1.073632 -0.231940
v 0.406251 1.039354 -0.249395
v -0.370111 1.161484 -0.035668
v -0.373256 1.164629 -0.041778
v 0.403107 1.042499 -0.255504
v 0.390842 1.001636 -0.264323
v -0.385521 1.123766 -0.050597
v -0.388666 1.126911 -0.056706
v 0.387697 1.004781 -0.270433
v 0.398914 0.945536 -0.247334
v -0.390369 1.072112 -0.033720
v -0.394277 1.071657 -0.040313
v 0.395005 0.945081 -0.253927
v 0.390695 0.908343 -0.248883
v -0.396971 1.033964 -0.036529
v -0.401407 1.025728 -0.041858
v 0.386259 0.900106 -0.254212
v 0.388699 0.579279 -0.157798
v -0.365673 0.698720 0.046210
v -0.370456 0.696049 0.038803
v 0.383916 0.576609 -0.165206
v 0.361715 0.068447 -0.066530
v -0.437486 0.194869 0.149907
v -0.442262 0.192197 0.142498
v 0.356931 0.065776 -0.073937
v 0.445316 0.826449 -0.135427
v -0.336442 0.948217 0.081307
v -0.341338 0.944306 0.074193
v 0.440421 0.822538 -0.142541
v 0.445845 1.015208 -0.183349
v -0.335913 1.136976 0.033385
v -0.340808 1.133065 0.026271
v 0.440951 1.011297 -0.190463
v 0.444558 0.636149 -0.087483
v -0.337200 0.757917 0.129251
v -0.342095 0.754006 0.122137
v 0.439663 0.632238 -0.094597
v 0.452495 0.466177 -0.031035
v -0.330446 0.587743 0.183780
v -0.335300 0.584072 0.176594
v 0.447641 0.462506 -0.038220
v 0.457891 0.284269 0.025571
v -0.324949 0.406502 0.240380
v -0.329655 0.405432 0.232767
v 0.453185 0.283199 0.017958
v 0.476729 0.080107 0.110527
v -0.306111 0.202340 0.325335
v -0.310818 0.201270 0.317722
v 0.472022 0.079037 0.102914
v 0.408504 -0.001530 0.014353
v -0.371233 0.119923 0.230526
v -0.378488 0.113180 0.226130
v 0.383448 -0.005500 0.014891
v 0.411280 0.987434 -0.236728
v -0.368457 1.108887 -0.020554
v -0.375691 1.109754 -0.026883
v 0.386245 0.991074 -0.238121
v 0.404426 0.003881 0.024139
v -0.370552 0.124593 0.238993
v 0.407202 0.992845 -0.226942
v -0.367776 1.113557 -0.012088
v 0.412343 0.008378 0.032330
v -0.353512 0.127669 0.244655
v 0.415119 0.997342 -0.218750
v -0.350736 1.116633 -0.006425
v 0.428425 0.012558 0.039989
v -0.346509 0.133263 0.254831
v 0.431201 1.001522 -0.211091
v -0.343733 1.122227 0.003751
v 0.420408 0.019537 0.052598
v -0.352433 0.139916 0.266859
v 0.423184 1.008501 -0.198483
v -0.349657 1.128880 0.015779
v 0.444127 0.023690 0.060242
v -0.344215 0.146483 0.278802
v 0.446903 1.012654 -0.190838
v -0.341439 1.135447 0.027721
vn 0.310477 0.565861 0.763810
vn -0.292233 -0.680933 -0.671513
vn -0.037804 0.806785 -0.589634
vn -0.849029 0.132223 0.511533
vn 0.037803 -0.806784 0.589635
vn 0.849032 -0.132224 -0.511529
vn 0.097234 0.970194 -0.221969
vn -0.849033 0.132252 0.511520
vn 0.849019 -0.132278 -0.511536
vn -0.302612 -0.669874 -0.678008
vn -0.092190 0.691348 -0.716616
vn -0.853513 0.136383 0.502907
vn 0.853501 -0.136387 -0.502927
vn -0.090291 -0.965850 0.242862
vn -0.177748 0.424084 -0.888008
vn -0.847531 0.139150 0.512181
vn 0.846405 -0.140149 -0.513767
vn 0.094716 -0.685362 0.722017
vn -0.293005 -0.267067 -0.918054
vn -0.847663 0.144242 0.510550
vn 0.847677 -0.144253 -0.510523
vn 0.177748 -0.424087 0.888007
vn -0.250814 0.063249 -0.965967
vn -0.826411 0.239447 0.509618
vn 0.871647 -0.025804 -0.489455
vn 0.294897 0.294516 0.909009
vn -0.289425 -0.252509 -0.923294
vn -0.850705 0.112347 0.513497
vn 0.860829 -0.167007 -0.480709
vn 0.243872 -0.103740 0.964243
vn -0.280822 -0.154659 -0.947217
vn -0.831606 0.057879 0.552341
vn 0.855854 -0.142875 -0.497093
vn 0.289560 0.254227 0.922780
vn -0.047883 -0.929365 0.366044
vn -0.853965 0.218863 0.472062
vn 0.853846 -0.134926 -0.502734
vn 0.280822 0.154659 0.947217
vn -0.293300 -0.232460 -0.927328
vn 0.002456 0.875577 -0.483072
vn 0.293459 0.234468 0.926772
vn -0.849050 0.132242 0.511494
vn -0.293459 -0.234467 -0.926772
vn 0.849048 -0.132243 -0.511497
vn -0.297157 -0.307851 -0.903839
vn -0.849040 0.132247 0.511510
vn 0.849047 -0.132244 -0.511499
vn 0.293300 0.232460 0.927328
vn -0.295242 -0.294511 -0.908898
vn -0.849933 0.129777 0.510658
vn 0.849941 -0.129786 -0.510643
vn 0.297151 0.307737 0.903880
vn -0.299795 -0.389961 -0.870663
vn -0.851366 0.132678 0.507516
vn 0.851369 -0.132676 -0.507511
vn 0.295113 0.292412 0.909617
vn -0.098045 -0.975348 0.197693
vn -0.851296 0.132690 0.507631
vn 0.851299 -0.132688 -0.507626
vn 0.299795 0.389961 0.870663
vn 0.115915 -0.626981 0.770362
vn 0.145484 0.988880 -0.030827
vn 0.002458 0.875582 -0.483063
vn -0.633054 0.192157 0.749878
vn 0.018173 -0.246083 -0.969078
vn 0.002457 0.875580 -0.483066
vn -0.997406 0.020330 0.069049
vn 0.935490 0.084482 0.343104
vn -0.002457 -0.875580 0.483067
vn 0.002458 0.875583 -0.483062
vn -0.344180 0.231948 0.909802
vn 0.752768 -0.163972 -0.637537
vn -0.002459 -0.875583 0.483062
vn 0.002457 0.875575 -0.483075
vn -0.849037 0.132248 0.511514
vn 0.465376 -0.219032 -0.857584
vn -0.002457 -0.875581 0.483065
vn 0.002424 0.875534 -0.483150
vn -0.913190 -0.097874 -0.395606
vn 0.866564 0.120522 0.484294
vn -0.002459 -0.875583 0.483061
vn -0.849036 0.132248 0.511516
vn 0.335006 -0.232740 -0.913019
vn -0.002423 -0.875529 0.483160
s off
f 3//1 4//1 12//1 11//1
f 5//2 8//2 7//2 6//2
f 1//3 5//3 6//3 2//3
f 2//4 6//4 7//4 3//4
f 3//5 7//5 8//5 4//5
f 5//6 1//6 4//6 8//6
f 11//7 12//7 16//7 15//7
f 2//8 3//8 11//8 10//8
f 4//9 1//9 9//9 12//9
f 1//10 2//10 10//10 9//10
f 15//11 16//11 20//11 19//11
f 10//12 11//12 15//12 14//12
f 12//13 9//13 13//13 16//13
f 9//14 10//14 14//14 13//14
f 19//15 20//15 24//15 23//15
f 14//16 15//16 19//16 18//16
f 16//17 13//17 17//17 20//17
f 13//18 14//18 18//18 17//18
f 23//19 24//19 28//19 27//19
f 18//20 19//20 23//20 22//20
f 20//21 17//21 21//21 24//21
f 17//22 18//22 22//22 21//22
f 27//23 28//23 32//23 31//23
f 22//24 23//24 27//24 26//24
f 24//25 21//25 25//25 28//25
f 21//26 22//26 26//26 25//26
f 31//27 32//27 36//27 35//27
f 26//28 27//28 31//28 30//28
f 28//29 25//29 29//29 32//29
f 25//30 26//30 30//30 29//30
f 35//31 36//31 40//31 39//31
f 30//32 31//32 35//32 34//32
f 32//33 29//33 33//33 36//33
f 29//34 30//34 34//34 33//34
f 37//35 38//35 39//35 40//35
f 34//36 35//36 39//36 38//36
f 36//37 33//37 37//37 40//37
f 33//38 34//38 38//38 37//38
f 43//39 44//39 52//39 51//39
f 45//40 48//40 47//40 46//40
f 41//41 45//41 46//41 42//41
f 42//42 46//42 47//42 43//42
f 43//43 47//43 48//43 44//43
f 45//44 41//44 44//44 48//44
f 51//45 52//45 56//45 55//45
f 42//46 43//46 51//46 50//46
f 44//47 41//47 49//47 52//47
f 41//48 42//48 50//48 49//48
f 55//49 56//49 60//49 59//49
f 50//50 51//50 55//50 54//50
f 52//51 49//51 53//51 56//51
f 49//52 50//52 54//52 53//52
f 59//53 60//53 64//53 63//53
f 54//54 55//54 59//54 58//54
f 56//55 53//55 57//55 60//55
f 53//56 54//56 58//56 57//56
f 61//57 62//57 63//57 64//57
f 58//58 59//58 63//58 62//58
f 60//59 57//59 61//59 64//59
f 57//60 58//60 62//60 61//60
f 65//61 66//61 67//61 68//61
f 69//62 72//62 71//62 70//62
f 69//63 70//63 76//63 75//63
f 66//64 70//64 71//64 67//64
f 67//43 71//43 72//43 68//43
f 69//65 65//65 68//65 72//65
f 75//66 76//66 80//66 79//66
f 70//67 66//67 74//67 76//67
f 65//68 69//68 75//68 73//68
f 66//69 65//69 73//69 74//69
f 79//70 80//70 84//70 83//70
f 76//71 74//71 78//71 80//71
f 73//72 75//72 79//72 77//72
f 74//73 73//73 77//73 78//73
f 83//74 84//74 88//74 87//74
f 80//75 78//75 82//75 84//75
f 77//76 79//76 83//76 81//76
f 78//77 77//77 81//77 82//77
f 87//78 88//78 92//78 91//78
f 84//79 82//79 86//79 88//79
f 81//80 83//80 87//80 85//80
f 82//81 81//81 85//81 86//81
f 89//41 91//41 92//41 90//41
f 88//82 86//82 90//82 92//82
f 85//83 87//83 91//83 89//83
f 86//84 85//84 89//84 90//84
