# Blender v2.69 (sub 0) OBJ File: 'radial.blend'
# www.blender.org
o radial_level_1_Radial_Circle.003
v -0.504040 0.690122 -0.872233
v -0.596672 0.057604 -0.988815
v 0.000001 0.011872 -0.988815
v 0.000001 0.651491 -0.872233
v 0.596674 0.057604 -0.988815
v 0.504041 0.690122 -0.872233
v -0.988711 0.804535 -0.872233
v -1.170415 0.193043 -0.988815
v 1.170417 0.193043 -0.988815
v 0.988712 0.804535 -0.872233
v -0.504040 0.690122 0.854081
v 0.000001 0.651490 0.854081
v 0.000001 0.011872 0.970664
v -0.596672 0.057604 0.970664
v 0.504041 0.690122 0.854081
v 0.596674 0.057604 0.970664
v -0.988711 0.804535 0.854081
v -1.170415 0.193043 0.970664
v 0.988712 0.804535 0.854081
v 1.170417 0.193043 0.970664
vn -0.013742 -0.179297 0.983699
vn 0.013742 -0.179297 0.983699
vn -0.041368 -0.175243 0.983656
vn 0.041368 -0.175243 0.983656
vn -0.013742 -0.179298 -0.983699
vn 0.013742 -0.179298 -0.983699
vn -0.041369 -0.175244 -0.983655
vn 0.041369 -0.175244 -0.983655
vn 0.229747 0.973250 0.000000
vn 0.958575 -0.284840 -0.000000
vn 0.076421 0.997076 0.000000
vn -0.076421 0.997076 0.000000
vn -0.229748 0.973250 0.000000
vn -0.958575 -0.284841 -0.000000
s off
f 1//1 2//1 3//1 4//1
f 4//2 3//2 5//2 6//2
f 2//3 1//3 7//3 8//3
f 6//4 5//4 9//4 10//4
f 11//5 12//5 13//5 14//5
f 12//6 15//6 16//6 13//6
f 17//7 11//7 14//7 18//7
f 15//8 19//8 20//8 16//8
f 2//9 8//9 18//9 14//9
f 8//10 7//10 17//10 18//10
f 3//11 2//11 14//11 13//11
f 5//12 3//12 13//12 16//12
f 9//13 5//13 16//13 20//13
f 10//14 9//14 20//14 19//14
