# Blender v2.69 (sub 0) OBJ File: 'radial.blend'
# www.blender.org
o Radial_Circle
v -1.143870 0.242914 -1.007689
v -0.583139 0.110546 -1.007689
v 0.000001 0.065852 -1.007689
v 0.583141 0.110546 -1.007689
v 1.143871 0.242914 -1.007689
v -1.170415 0.193043 -0.988815
v -0.596672 0.057604 -0.988815
v 0.000001 0.011872 -0.988815
v 0.596674 0.057604 -0.988815
v 1.170417 0.193043 -0.988815
v -1.143870 0.242914 0.989537
v -0.583139 0.110546 0.989537
v 0.000001 0.065852 0.989537
v 0.583141 0.110546 0.989537
v 1.143871 0.242914 0.989537
v -1.170415 0.193043 0.970664
v -0.596672 0.057604 0.970664
v 0.000001 0.011872 0.970664
v 0.596674 0.057604 0.970664
v 1.170417 0.193043 0.970664
vn 0.025288 0.329943 0.943662
vn -0.025288 0.329943 0.943662
vn 0.075015 0.317778 0.945193
vn -0.075016 0.317779 0.945193
vn 0.025288 0.329942 -0.943662
vn -0.025288 0.329942 -0.943662
vn 0.075015 0.317776 -0.945194
vn -0.075016 0.317777 -0.945193
vn 0.229748 0.973250 -0.000000
vn 0.882741 -0.469860 0.000000
vn 0.076421 0.997076 -0.000000
vn -0.076421 0.997076 -0.000000
vn -0.229748 0.973250 -0.000000
vn -0.882739 -0.469864 0.000000
s off
f 2//1 7//1 8//1 3//1
f 3//2 8//2 9//2 4//2
f 1//3 6//3 7//3 2//3
f 4//4 9//4 10//4 5//4
f 12//5 13//5 18//5 17//5
f 13//6 14//6 19//6 18//6
f 11//7 12//7 17//7 16//7
f 14//8 15//8 20//8 19//8
f 7//9 6//9 16//9 17//9
f 6//10 1//10 11//10 16//10
f 8//11 7//11 17//11 18//11
f 9//12 8//12 18//12 19//12
f 10//13 9//13 19//13 20//13
f 5//14 10//14 20//14 15//14
