# Blender v2.69 (sub 0) OBJ File: ''
# www.blender.org
o Radial_Circle
v 0.000000 -0.004578 -1.132481
v -0.220936 -0.004578 -1.110721
v -0.433382 -0.004578 -1.046276
v -0.629173 -0.004578 -0.941624
v -0.800785 -0.004578 -0.800785
v -0.941624 -0.004578 -0.629173
v -1.046276 -0.004578 -0.433382
v -1.110721 -0.004578 -0.220936
v -1.132481 -0.004578 -0.000000
v -1.110721 -0.004578 0.220936
v -1.046276 -0.004578 0.433382
v -0.941624 -0.004578 0.629173
v -0.800785 -0.004578 0.800785
v -0.629173 -0.004578 0.941624
v -0.433382 -0.004578 1.046277
v -0.220936 -0.004578 1.110721
v 0.000000 -0.004578 1.132481
v 0.220937 -0.004578 1.110721
v 0.433382 -0.004578 1.046276
v 0.629174 -0.004578 0.941624
v 0.800786 -0.004578 0.800785
v 0.941624 -0.004578 0.629172
v 1.046277 -0.004578 0.433381
v 1.110721 -0.004578 0.220935
v 1.132481 -0.004578 -0.000001
v 1.110721 -0.004578 -0.220937
v 1.046276 -0.004578 -0.433383
v 0.941623 -0.004578 -0.629174
v 0.800784 -0.004578 -0.800786
v 0.629172 -0.004578 -0.941625
v 0.433380 -0.004578 -1.046277
v 0.220934 -0.004578 -1.110722
v 0.000000 0.000000 -1.158762
v -0.226063 0.000000 -1.136497
v -0.443439 0.000000 -1.070557
v -0.643774 0.000000 -0.963476
v -0.819369 0.000000 -0.819369
v -0.963476 0.000000 -0.643774
v -1.070557 0.000000 -0.443439
v -1.136497 0.000000 -0.226063
v -1.158762 0.000000 -0.000000
v -1.136497 0.000000 0.226063
v -1.070557 0.000000 0.443439
v -0.963476 0.000000 0.643774
v -0.819369 0.000000 0.819369
v -0.643774 0.000000 0.963476
v -0.443439 0.000000 1.070557
v -0.226063 0.000000 1.136497
v 0.000000 0.000000 1.158762
v 0.226064 0.000000 1.136497
v 0.443440 0.000000 1.070557
v 0.643774 0.000000 0.963475
v 0.819369 0.000000 0.819368
v 0.963476 0.000000 0.643773
v 1.070557 0.000000 0.443438
v 1.136497 0.000000 0.226062
v 1.158762 0.000000 -0.000001
v 1.136497 0.000000 -0.226064
v 1.070556 0.000000 -0.443440
v 0.963475 0.000000 -0.643775
v 0.819368 0.000000 -0.819370
v 0.643773 0.000000 -0.963476
v 0.443438 0.000000 -1.070557
v 0.226062 0.000000 -1.136497
v 0.000000 0.041821 -1.132481
v -0.220936 0.041821 -1.110721
v -0.433382 0.041821 -1.046276
v -0.629173 0.041821 -0.941624
v -0.800785 0.041821 -0.800785
v -0.941624 0.041821 -0.629173
v -1.046276 0.041821 -0.433382
v -1.110721 0.041821 -0.220936
v -1.132481 0.041821 -0.000000
v -1.110721 0.041821 0.220936
v -1.046276 0.041821 0.433382
v -0.941624 0.041821 0.629173
v -0.800785 0.041821 0.800785
v -0.629173 0.041821 0.941624
v -0.433382 0.041821 1.046277
v -0.220936 0.041821 1.110721
v 0.000000 0.041821 1.132481
v 0.220937 0.041821 1.110721
v 0.433382 0.041821 1.046276
v 0.629174 0.041821 0.941624
v 0.800786 0.041821 0.800785
v 0.941624 0.041821 0.629172
v 1.046277 0.041821 0.433381
v 1.110721 0.041821 0.220935
v 1.132481 0.041821 -0.000001
v 1.110721 0.041821 -0.220937
v 1.046276 0.041821 -0.433383
v 0.941623 0.041821 -0.629174
v 0.800784 0.041821 -0.800786
v 0.629172 0.041821 -0.941625
v 0.433380 0.041821 -1.046277
v 0.220934 0.041821 -1.110722
v 0.000000 0.037243 -1.158762
v -0.226063 0.037243 -1.136497
v -0.443439 0.037243 -1.070557
v -0.643774 0.037243 -0.963476
v -0.819369 0.037243 -0.819369
v -0.963476 0.037243 -0.643774
v -1.070557 0.037243 -0.443439
v -1.136497 0.037243 -0.226063
v -1.158762 0.037243 -0.000000
v -1.136497 0.037243 0.226063
v -1.070557 0.037243 0.443439
v -0.963476 0.037243 0.643774
v -0.819369 0.037243 0.819369
v -0.643774 0.037243 0.963476
v -0.443439 0.037243 1.070557
v -0.226063 0.037243 1.136497
v 0.000000 0.037243 1.158762
v 0.226064 0.037243 1.136497
v 0.443440 0.037243 1.070557
v 0.643774 0.037243 0.963475
v 0.819369 0.037243 0.819368
v 0.963476 0.037243 0.643773
v 1.070557 0.037243 0.443438
v 1.136497 0.037243 0.226062
v 1.158762 0.037243 -0.000001
v 1.136497 0.037243 -0.226064
v 1.070556 0.037243 -0.443440
v 0.963475 0.037243 -0.643775
v 0.819368 0.037243 -0.819370
v 0.643773 0.037243 -0.963476
v 0.443438 0.037243 -1.070557
v 0.226062 0.037243 -1.136497
vn -0.152062 0.985023 0.081279
vn 0.133283 0.985023 0.109383
vn 0.016900 0.985023 -0.171591
vn -0.171591 0.985023 0.016900
vn 0.081278 0.985023 0.152061
vn 0.081278 0.985023 -0.152061
vn -0.164997 0.985023 -0.050051
vn 0.016900 0.985023 0.171591
vn 0.133283 0.985023 -0.109383
vn -0.016900 0.985023 0.171591
vn -0.133283 0.985023 -0.109383
vn 0.164996 0.985023 -0.050051
vn -0.081278 0.985023 0.152062
vn -0.081278 0.985023 -0.152061
vn 0.171591 0.985023 0.016900
vn -0.133283 0.985023 0.109383
vn -0.016900 0.985023 -0.171591
vn 0.152061 0.985023 0.081278
vn -0.164998 0.985023 0.050052
vn 0.109383 0.985023 0.133283
vn 0.050051 0.985023 -0.164996
vn -0.171590 0.985023 -0.016900
vn 0.050051 0.985023 0.164997
vn 0.109383 0.985023 -0.133283
vn -0.152061 0.985023 -0.081278
vn 0.152061 0.985023 -0.081278
vn -0.050051 0.985023 0.164997
vn -0.109383 0.985023 -0.133283
vn 0.171591 0.985023 -0.016900
vn -0.109382 0.985023 0.133283
vn -0.050051 0.985023 -0.164997
vn 0.164996 0.985023 0.050051
vn -0.152061 -0.985023 0.081279
vn 0.133283 -0.985023 0.109383
vn 0.016900 -0.985023 -0.171590
vn -0.171590 -0.985023 0.016900
vn 0.081278 -0.985023 0.152061
vn 0.081278 -0.985024 -0.152061
vn -0.164996 -0.985023 -0.050051
vn 0.016900 -0.985023 0.171590
vn 0.133283 -0.985023 -0.109383
vn -0.016900 -0.985023 0.171590
vn -0.133283 -0.985023 -0.109382
vn 0.164996 -0.985024 -0.050051
vn -0.081278 -0.985024 0.152061
vn -0.081278 -0.985024 -0.152061
vn 0.171591 -0.985023 0.016900
vn -0.133283 -0.985024 0.109383
vn -0.016900 -0.985023 -0.171591
vn 0.152061 -0.985024 0.081278
vn -0.164998 -0.985023 0.050052
vn 0.109383 -0.985023 0.133283
vn 0.050051 -0.985024 -0.164996
vn -0.171590 -0.985023 -0.016900
vn 0.050051 -0.985023 0.164997
vn 0.109383 -0.985023 -0.133283
vn -0.152061 -0.985024 -0.081278
vn 0.152061 -0.985023 -0.081278
vn -0.050051 -0.985023 0.164997
vn -0.109383 -0.985023 -0.133283
vn 0.171591 -0.985023 -0.016900
vn -0.109382 -0.985023 0.133283
vn -0.050051 -0.985023 -0.164997
vn 0.164996 -0.985024 0.050051
vn -0.956940 0.000000 0.290285
vn 0.290284 0.000000 -0.956941
vn -0.471395 0.000000 0.881922
vn 0.995185 0.000000 -0.098017
vn -0.471396 0.000000 -0.881921
vn 0.995185 0.000000 0.098017
vn -0.956941 0.000000 -0.290284
vn 0.290286 0.000000 0.956940
vn 0.098017 0.000000 0.995185
vn 0.098017 0.000000 -0.995185
vn -0.881922 0.000000 0.471396
vn -0.290283 0.000000 0.956941
vn 0.956940 0.000000 -0.290286
vn -0.634393 0.000000 -0.773010
vn -0.995185 0.000000 -0.098016
vn 0.471397 0.000000 0.881921
vn 0.290285 0.000000 0.956940
vn -0.773011 0.000000 0.634393
vn -0.098017 0.000000 -0.995185
vn -0.098017 0.000000 0.995185
vn 0.881921 0.000000 -0.471398
vn -0.773010 0.000000 -0.634393
vn 0.956940 0.000000 -0.290284
vn -0.995185 0.000000 0.098018
vn 0.634393 0.000000 0.773010
vn 0.471396 0.000000 0.881922
vn -0.634393 0.000000 0.773011
vn -0.290285 0.000000 -0.956940
vn 0.773009 0.000000 -0.634395
vn -0.881921 0.000000 -0.471397
vn 0.881921 0.000000 -0.471397
vn -0.956940 0.000000 0.290286
vn 0.773011 0.000000 0.634392
vn -0.471396 0.000000 0.881921
vn -0.471397 0.000000 -0.881921
vn 0.634392 0.000000 -0.773011
vn -0.956940 0.000000 -0.290285
vn 0.773010 0.000000 -0.634393
vn -0.881921 0.000000 0.471398
vn 0.881921 0.000000 0.471396
vn 0.773010 0.000000 0.634393
vn -0.290285 0.000000 0.956940
vn -0.634394 0.000000 -0.773010
vn 0.471395 0.000000 -0.881922
vn -0.995185 0.000000 -0.098017
vn 0.634393 0.000000 -0.773010
vn -0.773010 0.000000 0.634394
vn 0.956941 0.000000 0.290284
vn 0.881921 0.000000 0.471397
vn -0.098016 0.000000 -0.995185
vn -0.773011 0.000000 -0.634393
vn -0.098016 0.000000 0.995185
vn -0.995185 0.000000 0.098016
vn 0.471397 0.000000 -0.881921
vn -0.634392 0.000000 0.773011
vn 0.995185 0.000000 0.098016
vn -0.290286 0.000000 -0.956940
vn 0.956940 0.000000 0.290285
vn -0.881922 0.000000 -0.471396
vn 0.098016 0.000000 0.995185
vn 0.098015 0.000000 -0.995185
s off
f 27//1 59//1 60//1 28//1
f 5//2 37//2 38//2 6//2
f 16//3 48//3 49//3 17//3
f 25//4 57//4 58//4 26//4
f 3//5 35//5 36//5 4//5
f 14//6 46//6 47//6 15//6
f 23//7 55//7 56//7 24//7
f 1//8 33//8 34//8 2//8
f 12//9 44//9 45//9 13//9
f 32//10 64//10 33//10 1//10
f 21//11 53//11 54//11 22//11
f 10//12 42//12 43//12 11//12
f 30//13 62//13 63//13 31//13
f 19//14 51//14 52//14 20//14
f 8//15 40//15 41//15 9//15
f 28//16 60//16 61//16 29//16
f 17//17 49//17 50//17 18//17
f 6//18 38//18 39//18 7//18
f 26//19 58//19 59//19 27//19
f 4//20 36//20 37//20 5//20
f 15//21 47//21 48//21 16//21
f 24//22 56//22 57//22 25//22
f 2//23 34//23 35//23 3//23
f 13//24 45//24 46//24 14//24
f 22//25 54//25 55//25 23//25
f 11//26 43//26 44//26 12//26
f 31//27 63//27 64//27 32//27
f 20//28 52//28 53//28 21//28
f 9//29 41//29 42//29 10//29
f 29//30 61//30 62//30 30//30
f 18//31 50//31 51//31 19//31
f 7//32 39//32 40//32 8//32
f 91//33 92//33 124//33 123//33
f 69//34 70//34 102//34 101//34
f 80//35 81//35 113//35 112//35
f 89//36 90//36 122//36 121//36
f 67//37 68//37 100//37 99//37
f 78//38 79//38 111//38 110//38
f 87//39 88//39 120//39 119//39
f 65//40 66//40 98//40 97//40
f 76//41 77//41 109//41 108//41
f 96//42 65//42 97//42 128//42
f 85//43 86//43 118//43 117//43
f 74//44 75//44 107//44 106//44
f 94//45 95//45 127//45 126//45
f 83//46 84//46 116//46 115//46
f 72//47 73//47 105//47 104//47
f 92//48 93//48 125//48 124//48
f 81//49 82//49 114//49 113//49
f 70//50 71//50 103//50 102//50
f 90//51 91//51 123//51 122//51
f 68//52 69//52 101//52 100//52
f 79//53 80//53 112//53 111//53
f 88//54 89//54 121//54 120//54
f 66//55 67//55 99//55 98//55
f 77//56 78//56 110//56 109//56
f 86//57 87//57 119//57 118//57
f 75//58 76//58 108//58 107//58
f 95//59 96//59 128//59 127//59
f 84//60 85//60 117//60 116//60
f 73//61 74//61 106//61 105//61
f 93//62 94//62 126//62 125//62
f 82//63 83//63 115//63 114//63
f 71//64 72//64 104//64 103//64
f 10//65 11//65 75//65 74//65
f 48//66 47//66 111//66 112//66
f 63//67 62//67 126//67 127//67
f 25//68 26//68 90//68 89//68
f 3//69 4//69 68//69 67//69
f 41//70 40//70 104//70 105//70
f 56//71 55//71 119//71 120//71
f 18//72 19//72 83//72 82//72
f 34//73 33//73 97//73 98//73
f 49//74 48//74 112//74 113//74
f 11//75 12//75 76//75 75//75
f 64//76 63//76 127//76 128//76
f 26//77 27//77 91//77 90//77
f 4//78 5//78 69//78 68//78
f 42//68 41//68 105//68 106//68
f 57//79 56//79 120//79 121//79
f 19//80 20//80 84//80 83//80
f 35//81 34//81 98//81 99//81
f 12//82 13//82 77//82 76//82
f 50//83 49//83 113//83 114//83
f 33//84 64//84 128//84 97//84
f 27//85 28//85 92//85 91//85
f 5//86 6//86 70//86 69//86
f 43//87 42//87 106//87 107//87
f 58//88 57//88 121//88 122//88
f 20//89 21//89 85//89 84//89
f 36//90 35//90 99//90 100//90
f 13//91 14//91 78//91 77//91
f 51//92 50//92 114//92 115//92
f 28//93 29//93 93//93 92//93
f 6//94 7//94 71//94 70//94
f 44//95 43//95 107//95 108//95
f 59//96 58//96 122//96 123//96
f 21//97 22//97 86//97 85//97
f 37//89 36//89 100//89 101//89
f 14//98 15//98 79//98 78//98
f 52//99 51//99 115//99 116//99
f 29//100 30//100 94//100 93//100
f 7//101 8//101 72//101 71//101
f 45//102 44//102 108//102 109//102
f 60//103 59//103 123//103 124//103
f 22//104 23//104 87//104 86//104
f 38//105 37//105 101//105 102//105
f 15//106 16//106 80//106 79//106
f 53//107 52//107 116//107 117//107
f 30//108 31//108 95//108 94//108
f 8//109 9//109 73//109 72//109
f 46//110 45//110 109//110 110//110
f 61//111 60//111 124//111 125//111
f 23//112 24//112 88//112 87//112
f 39//113 38//113 102//113 103//113
f 1//114 2//114 66//114 65//114
f 54//115 53//115 117//115 118//115
f 16//116 17//116 81//116 80//116
f 31//66 32//66 96//66 95//66
f 9//117 10//117 74//117 73//117
f 47//118 46//118 110//118 111//118
f 62//119 61//119 125//119 126//119
f 24//120 25//120 89//120 88//120
f 2//121 3//121 67//121 66//121
f 40//122 39//122 103//122 104//122
f 55//123 54//123 118//123 119//123
f 17//124 18//124 82//124 81//124
f 32//125 1//125 65//125 96//125
