# Blender v2.69 (sub 0) OBJ File: 'work.blend'
# www.blender.org
o outline_Cube.001
v 1.057161 1.597176 -0.459231
v 1.060747 1.589063 -0.474768
v -0.213241 1.861067 -0.910802
v -0.216826 1.869180 -0.895265
v 0.456247 -0.082556 0.248660
v 0.459832 -0.090670 0.233122
v -0.814156 0.181334 -0.202911
v -0.817741 0.189448 -0.187374
v -0.284187 1.876214 -0.935084
v -0.287772 1.884327 -0.919547
v -0.909129 0.203827 -0.227193
v -0.903626 0.210783 -0.211656
v -0.314793 1.877115 -0.958412
v -0.362176 1.892020 -0.963704
v -0.922613 0.231317 -0.250521
v -0.931538 0.280181 -0.255813
v -0.314803 1.871252 -0.971798
v -0.370678 1.881076 -0.995725
v -0.927804 0.228590 -0.263907
v -0.945185 0.282594 -0.287834
vn 0.315897 0.868986 -0.380884
vn -0.315895 -0.868986 0.380886
vn 0.927392 -0.198011 0.317390
vn 0.204759 -0.441423 -0.873624
vn -0.319952 -0.844571 0.429338
vn -0.204759 0.441423 0.873624
vn -0.915991 -0.126061 0.380880
vn -0.172270 0.435544 0.883530
vn 0.161191 -0.433429 -0.886655
vn 0.315896 0.868985 -0.380887
vn -0.915989 -0.126061 0.380883
vn -0.343417 0.473431 0.811127
vn 0.466412 -0.488054 -0.737742
vn 0.315896 0.868987 -0.380883
vn -0.873569 0.419837 0.246200
vn 0.926839 -0.370436 -0.061208
vn 0.315894 0.868987 -0.380882
s off
f 1//1 2//1 3//1 4//1
f 5//2 8//2 7//2 6//2
f 1//3 5//3 6//3 2//3
f 2//4 6//4 7//4 3//4
f 7//5 8//5 12//5 11//5
f 5//6 1//6 4//6 8//6
f 11//7 12//7 16//7 15//7
f 8//8 4//8 10//8 12//8
f 3//9 7//9 11//9 9//9
f 4//10 3//10 9//10 10//10
f 15//11 16//11 20//11 19//11
f 12//12 10//12 14//12 16//12
f 9//13 11//13 15//13 13//13
f 10//14 9//14 13//14 14//14
f 16//15 14//15 18//15 20//15
f 13//16 15//16 19//16 17//16
f 14//17 13//17 17//17 18//17
