# Blender v2.69 (sub 0) OBJ File: 'work.blend'
# www.blender.org
o book_paper_Cube.003
v -0.751166 0.262718 -0.088971
v -0.741392 0.262269 -0.101671
v 0.362523 0.038567 0.283233
v 0.362249 0.036988 0.299184
v -0.239795 1.693429 -0.690578
v -0.234617 1.680125 -0.697872
v 0.869299 1.456424 -0.312968
v 0.873620 1.467699 -0.302423
v -0.736670 0.264693 -0.071952
v 0.376744 0.038963 0.316203
v -0.225300 1.695404 -0.673559
v 0.888115 1.469674 -0.285404
v -0.731387 0.269903 -0.055071
v 0.382028 0.044173 0.333083
v -0.220016 1.700614 -0.656678
v 0.893399 1.474884 -0.268523
v -0.734878 0.309778 -0.040189
v 0.378537 0.051679 0.347966
v -0.223507 1.708119 -0.641795
v 0.889908 1.482389 -0.253641
v -0.746489 0.318172 -0.030096
v 0.366926 0.092442 0.358059
v -0.235119 1.716514 -0.631702
v 0.878296 1.490784 -0.243547
v -0.766876 0.369324 -0.022001
v 0.346539 0.143594 0.366154
v -0.255505 1.727204 -0.623607
v 0.857910 1.501474 -0.235452
v -0.762800 0.381127 -0.010409
v 0.341115 0.157425 0.374495
v -0.256025 1.726152 -0.606610
v 0.847891 1.502450 -0.221707
vn -0.791765 0.026386 -0.610255
vn 0.213929 -0.442634 -0.870810
vn 0.939105 -0.343166 -0.017853
vn -0.304755 -0.881026 0.361827
vn -0.165226 -0.981503 -0.096705
vn 0.371975 0.553731 -0.744994
vn -0.306009 -0.878489 0.366901
vn 0.304754 0.881021 -0.361838
vn 0.696352 -0.475093 -0.537942
vn -0.696352 0.475095 0.537939
vn -0.379484 -0.531610 0.757220
vn 0.306010 0.878489 -0.366900
vn 0.905519 -0.391970 -0.162466
vn -0.905520 0.391969 0.162465
vn -0.379945 -0.499266 0.778701
vn 0.306827 0.876805 -0.370231
vn 0.927388 -0.198004 0.317405
vn -0.891693 0.139173 -0.430713
vn -0.366637 -0.286215 0.885245
vn 0.307693 0.875005 -0.373752
vn 0.707267 0.044389 0.705551
vn -0.680947 -0.064814 -0.729459
vn -0.370349 -0.582261 0.723749
vn 0.308428 0.873453 -0.376766
vn 0.554570 0.151417 0.818245
vn -0.554569 -0.151418 -0.818246
vn -0.207527 0.460706 0.862950
vn 0.177066 0.982173 0.063125
vn 0.805548 -0.041501 0.591075
vn -0.937733 0.347079 -0.013886
s off
f 5//1 6//1 2//1 1//1
f 6//2 7//2 3//2 2//2
f 7//3 8//3 4//3 3//3
f 1//4 4//4 10//4 9//4
f 1//5 2//5 3//5 4//5
f 8//6 7//6 6//6 5//6
f 9//7 10//7 14//7 13//7
f 8//8 5//8 11//8 12//8
f 4//9 8//9 12//9 10//9
f 5//10 1//10 9//10 11//10
f 13//11 14//11 18//11 17//11
f 12//12 11//12 15//12 16//12
f 10//13 12//13 16//13 14//13
f 11//14 9//14 13//14 15//14
f 17//15 18//15 22//15 21//15
f 16//16 15//16 19//16 20//16
f 14//17 16//17 20//17 18//17
f 15//18 13//18 17//18 19//18
f 21//19 22//19 26//19 25//19
f 20//20 19//20 23//20 24//20
f 18//21 20//21 24//21 22//21
f 19//22 17//22 21//22 23//22
f 25//23 26//23 30//23 29//23
f 24//24 23//24 27//24 28//24
f 22//25 24//25 28//25 26//25
f 23//26 21//26 25//26 27//26
f 32//27 31//27 29//27 30//27
f 28//28 27//28 31//28 32//28
f 26//29 28//29 32//29 30//29
f 27//30 25//30 29//30 31//30
