# Blender v2.69 (sub 0) OBJ File: 'work.blend'
# www.blender.org
o book_paper_Cube.003
v -0.812215 0.234240 -0.064348
v -0.798440 0.226872 -0.091966
v 0.320109 -0.011944 0.290868
v 0.316475 -0.006742 0.321956
v -0.253012 1.798775 -0.722227
v -0.244262 1.777350 -0.743933
v 0.874287 1.538534 -0.361100
v 0.875677 1.557793 -0.335923
v -0.799892 0.243124 -0.032744
v 0.328798 0.002143 0.353560
v -0.240690 1.807660 -0.690623
v 0.888000 1.566678 -0.304319
v -0.798190 0.257156 0.002071
v 0.330499 0.016174 0.388375
v -0.238988 1.821691 -0.655808
v 0.889702 1.580709 -0.269504
v -0.806120 0.274203 0.035872
v 0.322570 0.033221 0.422177
v -0.246917 1.838738 -0.622006
v 0.881773 1.597757 -0.235702
v -0.822192 0.291070 0.062322
v 0.306497 0.050088 0.448626
v -0.262990 1.855605 -0.595557
v 0.865700 1.614623 -0.209253
v -0.847896 0.310953 0.087758
v 0.280794 0.069971 0.474062
v -0.288693 1.875488 -0.570121
v 0.839996 1.634506 -0.183817
v -0.847063 0.331410 0.115311
v 0.271486 0.092594 0.498145
v -0.292885 1.881888 -0.536657
v 0.825664 1.643072 -0.153823
vn -0.876044 0.116334 -0.467988
vn 0.205001 -0.440746 -0.873909
vn 0.949072 -0.273340 0.156676
vn -0.312932 -0.875522 0.368151
vn -0.249779 -0.959355 0.131336
vn 0.355089 0.732940 -0.580267
vn -0.312932 -0.875521 0.368152
vn 0.312932 0.875522 -0.368151
vn 0.882369 -0.411416 -0.228391
vn -0.882369 0.411416 0.228390
vn 0.312932 0.875521 -0.368154
vn 0.948695 -0.306619 0.077213
vn -0.948696 0.306618 -0.077211
vn 0.927388 -0.198003 0.317407
vn -0.927387 0.198004 -0.317408
vn -0.312932 -0.875521 0.368153
vn 0.312932 0.875519 -0.368156
vn 0.833151 -0.066945 0.548979
vn -0.833151 0.066945 -0.548979
vn -0.352587 -0.746198 0.564686
vn 0.717023 0.036424 0.696097
vn -0.717023 -0.036423 -0.696097
vn -0.205001 0.440746 0.873909
vn 0.255464 0.955007 -0.150661
vn 0.881277 -0.123127 0.456279
vn -0.948442 0.267530 -0.169957
s off
f 5//1 6//1 2//1 1//1
f 6//2 7//2 3//2 2//2
f 7//3 8//3 4//3 3//3
f 1//4 4//4 10//4 9//4
f 1//5 2//5 3//5 4//5
f 8//6 7//6 6//6 5//6
f 9//7 10//7 14//7 13//7
f 8//8 5//8 11//8 12//8
f 4//9 8//9 12//9 10//9
f 5//10 1//10 9//10 11//10
f 13//7 14//7 18//7 17//7
f 12//11 11//11 15//11 16//11
f 10//12 12//12 16//12 14//12
f 11//13 9//13 13//13 15//13
f 17//7 18//7 22//7 21//7
f 16//8 15//8 19//8 20//8
f 14//14 16//14 20//14 18//14
f 15//15 13//15 17//15 19//15
f 21//16 22//16 26//16 25//16
f 20//17 19//17 23//17 24//17
f 18//18 20//18 24//18 22//18
f 19//19 17//19 21//19 23//19
f 25//20 26//20 30//20 29//20
f 24//8 23//8 27//8 28//8
f 22//21 24//21 28//21 26//21
f 23//22 21//22 25//22 27//22
f 32//23 31//23 29//23 30//23
f 28//24 27//24 31//24 32//24
f 26//25 28//25 32//25 30//25
f 27//26 25//26 29//26 31//26
